<?xml version="1.0" encoding="UTF-8"?>
<svg version="1.1" xmlns="http://www.w3.org/2000/svg" width="256" height="255">
<path d="M0 0 C23.61034867 21.19652086 38.57059362 51.22875995 41.36547852 82.91455078 C43.21721094 119.6728749 32.7669438 153.17697099 8.20141602 180.85595703 C-10.04684439 200.81066277 -34.20227761 214.26674652 -60.63452148 219.91455078 C-61.75213867 220.15818359 -62.86975586 220.40181641 -64.02124023 220.65283203 C-96.55947498 226.42257933 -130.26992256 218.79180775 -157.94702148 201.10205078 C-187.1141202 180.54230567 -205.75717015 152.21212518 -213.05639648 117.32861328 C-218.7580847 83.65783285 -211.22716589 50.40717467 -192.63452148 21.91455078 C-190.11861898 18.44071051 -187.43525417 15.16177708 -184.63452148 11.91455078 C-183.47436523 10.55330078 -183.47436523 10.55330078 -182.29077148 9.16455078 C-164.17013986 -11.47920676 -139.36866442 -25.25089879 -112.63452148 -31.08544922 C-111.51432617 -31.33037109 -110.39413086 -31.57529297 -109.23999023 -31.82763672 C-69.64581235 -38.81766087 -29.8829785 -26.2520561 0 0 Z " fill="#000000" transform="translate(214.634521484375,33.08544921875)"/>
<path d="M0 0 C0.78955078 -0.020625 1.57910156 -0.04125 2.39257812 -0.0625 C4.68359375 -0.078125 4.68359375 -0.078125 8.5625 0.25 C11.94361461 5.32167192 10.93158012 11.29459606 10.9375 17.25 C10.96199219 18.54679687 10.98648438 19.84359375 11.01171875 21.1796875 C11.01751953 23.03980469 11.01751953 23.03980469 11.0234375 24.9375 C11.03165527 26.07574219 11.03987305 27.21398437 11.04833984 28.38671875 C10.5625 31.25 10.5625 31.25 8.72924805 33.12182617 C5.73509446 34.68081026 3.35775598 34.61215964 0 34.5625 C-1.70349609 34.55669922 -1.70349609 34.55669922 -3.44140625 34.55078125 C-6.4375 34.25 -6.4375 34.25 -9.4375 32.25 C-9.79394531 29.19311523 -9.79394531 29.19311523 -9.765625 25.30859375 C-9.76375183 24.62571793 -9.76187866 23.9428421 -9.75994873 23.23927307 C-9.75322543 21.79594032 -9.73930523 20.35262587 -9.71875 18.90942383 C-9.68757314 16.69270015 -9.67777826 14.47668687 -9.671875 12.25976562 C-9.59201363 0.0623364 -9.59201363 0.0623364 0 0 Z " fill="#FEFEFE" transform="translate(102.4375,117.75)"/>
<path d="M0 0 C1.98 0 3.96 0 6 0 C6 9.24 6 18.48 6 28 C8.64 28 11.28 28 14 28 C14 18.76 14 9.52 14 0 C15.98 0 17.96 0 20 0 C20 11.22 20 22.44 20 34 C3 34 3 34 0 32 C-0.26727014 29.51659097 -0.34866334 27.28527932 -0.29296875 24.8046875 C-0.28872391 24.09724396 -0.28447906 23.38980042 -0.28010559 22.66091919 C-0.26329547 20.39856095 -0.22564128 18.13708952 -0.1875 15.875 C-0.17245607 14.34246077 -0.15876716 12.8099076 -0.14648438 11.27734375 C-0.11338462 7.51788682 -0.06158825 3.75909382 0 0 Z " fill="#FEFEFE" transform="translate(140,118)"/>
<path d="M0 0 C5.61 0 11.22 0 17 0 C18.20272819 2.40545638 18.10071472 3.94996953 18.0625 6.625 C18.05347656 7.44226563 18.04445312 8.25953125 18.03515625 9.1015625 C18.02355469 9.72804688 18.01195312 10.35453125 18 11 C16.02 11 14.04 11 12 11 C12 9.02 12 7.04 12 5 C9.69 5 7.38 5 5 5 C6.26318129 10.05272517 7.88141125 12.19389484 12.0625 15.25 C16.92482916 18.84965831 16.92482916 18.84965831 18 21 C18.14679934 22.82934565 18.22102635 24.66500243 18.25 26.5 C18.27578125 27.4796875 18.3015625 28.459375 18.328125 29.46875 C18.21984375 30.3040625 18.1115625 31.139375 18 32 C14.42878282 34.38081145 12.73325367 34.26906871 8.5 34.25 C7.3553125 34.25515625 6.210625 34.2603125 5.03125 34.265625 C2 34 2 34 -1 32 C-1.29296875 29.3984375 -1.29296875 29.3984375 -1.1875 26.375 C-1.16042969 25.37210938 -1.13335937 24.36921875 -1.10546875 23.3359375 C-1.07066406 22.56507813 -1.03585938 21.79421875 -1 21 C0.66611905 20.957279 2.33382885 20.95936168 4 21 C5 22 5 22 5.0625 25.0625 C5.041875 26.031875 5.02125 27.00125 5 28 C7.31 28 9.62 28 12 28 C11.76928208 24.01434793 11.37203309 22.37968567 8.53125 19.48046875 C7.5309375 18.72378906 6.530625 17.96710938 5.5 17.1875 C4.4996875 16.41792969 3.499375 15.64835938 2.46875 14.85546875 C1.6540625 14.24316406 0.839375 13.63085938 0 13 C-1 12 -1 12 -1.1328125 9.78515625 C-1.13023437 8.88667969 -1.12765625 7.98820312 -1.125 7.0625 C-1.12757813 6.16660156 -1.13015625 5.27070312 -1.1328125 4.34765625 C-1 2 -1 2 0 0 Z " fill="#FCFCFC" transform="translate(169,118)"/>
<path d="M0 0 C1.98 0 3.96 0 6 0 C6 15.84 6 31.68 6 48 C9.96 48 13.92 48 18 48 C18 49.65 18 51.3 18 53 C17.67 53.33 17.34 53.66 17 54 C11.39 54 5.78 54 0 54 C0 36.18 0 18.36 0 0 Z " fill="#FFFFFF" transform="translate(68,98)"/>
<path d="M0 0 C1.67542976 0.28604898 3.34385343 0.61781233 5 1 C5 4.3 5 7.6 5 11 C6.98 11 8.96 11 11 11 C10.67 12.65 10.34 14.3 10 16 C8.35 16 6.7 16 5 16 C5 23.59 5 31.18 5 39 C6.65 39 8.3 39 10 39 C10.38218767 40.65614657 10.71395102 42.32457024 11 44 C9.12735324 45.87264676 6.50240053 45.23607378 4.0078125 45.328125 C1.33061792 44.89060682 0.62562181 44.16303158 -1 42 C-1.34057617 39.27270508 -1.34057617 39.27270508 -1.29296875 36.01953125 C-1.28330078 34.85615234 -1.27363281 33.69277344 -1.26367188 32.49414062 C-1.23853516 31.27919922 -1.21339844 30.06425781 -1.1875 28.8125 C-1.17396484 27.58595703 -1.16042969 26.35941406 -1.14648438 25.09570312 C-1.11108741 22.06336336 -1.0617076 19.03190004 -1 16 C-2.32 15.67 -3.64 15.34 -5 15 C-5 13.68 -5 12.36 -5 11 C-3.68 11 -2.36 11 -1 11 C-1.01160156 10.28972656 -1.02320312 9.57945313 -1.03515625 8.84765625 C-1.04869141 7.46900391 -1.04869141 7.46900391 -1.0625 6.0625 C-1.07410156 5.14597656 -1.08570312 4.22945313 -1.09765625 3.28515625 C-1 1 -1 1 0 0 Z " fill="#FEFEFE" transform="translate(123,107)"/>
<path d="M0 0 C12.87 0 25.74 0 39 0 C39 1.65 39 3.3 39 5 C38 6 38 6 34.39819336 6.11352539 C32.79540144 6.11336625 31.1926044 6.10767063 29.58984375 6.09765625 C28.74780899 6.0962413 27.90577423 6.09482635 27.03822327 6.09336853 C24.33794665 6.08775263 21.63775172 6.07519748 18.9375 6.0625 C17.11132932 6.05748705 15.28515734 6.05292379 13.45898438 6.04882812 C8.97262458 6.03777804 4.48632616 6.02050279 0 6 C0 4.02 0 2.04 0 0 Z " fill="#FCFCFC" transform="translate(14,125)"/>
<path d="M0 0 C12.87 0 25.74 0 39 0 C39 1.65 39 3.3 39 5 C37.18434564 6.81565436 34.68730038 6.12861899 32.27111816 6.13894653 C31.47008667 6.1369223 30.66905518 6.13489807 29.84375 6.1328125 C28.61754944 6.13424759 28.61754944 6.13424759 27.36657715 6.13571167 C25.63484622 6.13639345 23.90311276 6.13453929 22.17138672 6.13037109 C19.51133518 6.12502279 16.8514525 6.13031612 14.19140625 6.13671875 C12.51302046 6.13605797 10.83463477 6.1347768 9.15625 6.1328125 C8.35521851 6.13483673 7.55418701 6.13686096 6.72888184 6.13894653 C1.11495079 6.11495079 1.11495079 6.11495079 0 5 C0 3.35 0 1.7 0 0 Z " fill="#FCFCFC" transform="translate(203,125)"/>
<path d="M0 0 C2.97 0 5.94 0 9 0 C9 7.59 9 15.18 9 23 C6.03 23 3.06 23 0 23 C0 15.41 0 7.82 0 0 Z " fill="#000000" transform="translate(98,123)"/>
</svg>
